<svg width="266" height="110" viewBox="0 0 266 110" fill="none" xmlns="http://www.w3.org/2000/svg">
<path d="M113.505 55C113.505 48.2361 112.185 41.7828 109.876 35.7938C109.261 55.4944 88.5996 70.7525 76.468 80.8499H106.837C111.084 73.1374 113.505 64.3459 113.505 55ZM91.5499 11.6173C81.9385 4.35898 69.8829 0 56.749 0C25.4077 0 0 24.6241 0 55C0 85.3759 25.4077 110 56.749 110C71.1066 110 84.1776 104.799 94.1661 96.2817H53.0778L52.9554 84.5843C77.7116 63.728 92.8894 49.6223 92.8894 35.9975C92.8894 30.9337 90.8983 24.5439 81.9451 24.5439C74.8539 24.5439 68.0108 28.5254 69.2511 45.1597H54.8241C51.2124 25.8733 62.0376 10.5551 82.6893 10.5551C85.8842 10.5551 88.851 10.9292 91.5499 11.6173Z" fill="#AFCA0B"/>
<path d="M166.145 38.0151H179.57C180.026 28.118 176.586 12.439 154.443 12.439C138.151 12.439 126.327 21.8919 126.327 41.5724C126.327 44.2412 126.442 58.0297 126.442 66.594C126.442 87.9413 141.706 92.6143 154.556 92.6143C162.245 92.6143 173.372 90.9441 178.538 85.4963V51.4695H153.296V63.8149H164.541V78.8225C156.047 81.6016 140.559 82.7172 140.559 63.8149V41.5724C140.559 28.3418 146.869 23.7791 153.864 23.7791C161.098 23.7791 166.145 27.3398 166.145 38.0151ZM265.993 71.0431C266.572 40.5737 230.544 50.6912 230.888 33.6761C231 27.6738 235.019 23.7791 241.558 23.7791C248.553 23.7791 252.687 27.784 252.568 38.2389H265.765C266.112 28.7827 263.82 12.6595 242.021 12.6595C228.48 12.6595 217.347 19.1128 217.119 33.4557C216.544 62.6993 252.8 53.1396 252.224 70.816C251.996 78.0442 246.605 81.2675 240.523 81.2675C233.412 81.2675 227.673 77.266 228.821 65.2579H215.508C214.02 81.1573 221.25 92.504 240.41 92.504C256.587 92.504 265.765 83.8261 265.993 71.0431ZM205.384 91.4986H191.844V13.6616H205.384V91.4986ZM205.384 91.4986H191.844V13.6616H205.384V91.4986Z" fill="#3C3C3B"/>
</svg>
