<svg width="165" height="33" fill="none" xmlns="http://www.w3.org/2000/svg"><path d="M27.549 18.343c-1.084-1.346-2.726-2.37-5.012-2.926 1.495-.556 2.638-1.287 3.4-2.165 1.143-1.433 1.348-3.042 1.348-5.002 0-2.312-.82-4.272-2.432-5.822C23.21.878 20.925.058 17.848.058H0V33h16.822c.733 0 2.17-.147 4.338-.468 1.641-.205 2.843-.615 3.663-1.083 1.29-.819 2.374-1.901 3.136-3.247a9.613 9.613 0 001.143-4.593c0-2.107-.527-3.862-1.553-5.266zM9.847 6.67h4.28c1.494 0 2.52.263 3.135.819.615.556.88 1.287.88 2.223 0 1.024-.265 1.844-.88 2.37-.616.556-1.641.82-3.194.82h-4.22V6.67zm8.47 18.226c-.674.614-1.905.936-3.517.936H9.847v-6.64H14.8c1.7 0 2.93.262 3.605.877.674.614 1.026 1.346 1.026 2.37-.088 1.053-.44 1.843-1.114 2.457zM30.186.028h10.316v24.4h9.29v8.454H30.186V.028z" fill="#F20000"/><path d="M59.874.028h-8.558v8.543h8.558V.028z" fill="#FFC107"/><path d="M51.316 10.123h8.558v22.82h-8.558v-22.82zM91.263 32.942H61.252l13.98-24.4h-13.98V0h27.96L76.168 24.4h14.595V0h8.558v14.716L109.785 0h9.29l-10.462 15.505 12.426 17.407h-10.463L99.322 17.817v15.095" fill="#F20000"/><path d="M131.795.028c-9.085 0-16.5 7.373-16.5 16.471 0 9.07 7.385 16.471 16.5 16.471 9.085 0 16.5-7.372 16.5-16.47 0-9.07-7.385-16.472-16.5-16.472zm0 24.4c-4.425 0-7.942-3.511-7.942-7.929 0-4.417 3.517-7.928 7.942-7.928 4.425 0 7.942 3.51 7.942 7.928s-3.517 7.928-7.942 7.928z" fill="#F20000"/><path d="M165 16.646l-8.147 16.266h-8.47l8.147-16.383L148.324 0l9.027.059L165 16.646z" fill="#FFC107"/></svg>
