<svg width="31" height="32" viewBox="0 0 31 32" fill="none" xmlns="http://www.w3.org/2000/svg">
<g clip-path="url(#clip0_195_1200)">
<path d="M0.709473 31.0884L2.79908 23.247C1.50992 20.9521 0.831986 18.3485 0.832799 15.682C0.83618 7.33866 7.44336 0.550781 15.5615 0.550781C19.5017 0.55261 23.1997 2.1285 25.9802 4.98869C28.7612 7.84885 30.2918 11.6506 30.2902 15.6938C30.2868 24.0374 23.6793 30.8259 15.5621 30.8259C15.5615 30.8259 15.5625 30.8259 15.5621 30.8259H15.5556C13.0906 30.8251 10.6686 30.1892 8.51746 28.9843L0.709473 31.0884Z" fill="#000B7F"/>
<path fill-rule="evenodd" clip-rule="evenodd" d="M11.7508 9.12363C11.4653 8.47118 11.1647 8.45812 10.893 8.4467C10.6708 8.43691 10.4164 8.43751 10.1625 8.43751C9.90827 8.43751 9.49524 8.53567 9.14595 8.92771C8.79646 9.31975 7.81152 10.2675 7.81152 12.195C7.81152 14.1227 9.17772 15.9854 9.36815 16.247C9.55878 16.5082 12.0054 20.5902 15.8802 22.1606C19.1005 23.4657 19.7558 23.2061 20.4548 23.1408C21.1538 23.0755 22.7102 22.1933 23.0279 21.2784C23.3457 20.3637 23.3457 19.5796 23.2503 19.4157C23.155 19.2525 22.9009 19.1545 22.5196 18.9586C22.1383 18.7627 20.2642 17.8147 19.9147 17.6841C19.5652 17.5535 19.311 17.4882 19.0568 17.8804C18.8027 18.2723 18.0725 19.1545 17.8501 19.4157C17.6277 19.6775 17.4053 19.7102 17.024 19.5143C16.6428 19.3178 15.415 18.9045 13.9584 17.5698C12.8252 16.5314 12.06 15.249 11.8376 14.8568C11.6152 14.4649 11.8138 14.2527 12.005 14.0574C12.1762 13.8819 12.3863 13.6 12.5769 13.3713C12.7671 13.1425 12.8307 12.9792 12.9578 12.718C13.0849 12.4564 13.0213 12.2276 12.926 12.0317C12.8307 11.8358 12.0898 9.89831 11.7508 9.12363Z" fill="white"/>
</g>
<defs>
<clipPath id="clip0_195_1200">
<rect width="31" height="32" fill="white"/>
</clipPath>
</defs>
</svg>
