<svg width="32" height="32" viewBox="0 0 32 32" fill="none" xmlns="http://www.w3.org/2000/svg">
<g clip-path="url(#clip0_195_1206)">
<path d="M32 16C32 7.16344 24.8366 0 16 0C7.16344 0 0 7.16344 0 16C0 24.8366 7.16344 32 16 32C24.8366 32 32 24.8366 32 16Z" fill="#419FD9"/>
<path d="M32 16C32 7.16344 24.8366 0 16 0C7.16344 0 0 7.16344 0 16C0 24.8366 7.16344 32 16 32C24.8366 32 32 24.8366 32 16Z" fill="#000B7F"/>
<path d="M7.1916 15.6459C11.8445 13.5762 14.9471 12.2117 16.4995 11.5523C20.9319 9.67 21.853 9.343 22.4533 9.33214C22.5853 9.32987 22.8805 9.36327 23.0718 9.52167C23.2333 9.65547 23.2777 9.8362 23.2989 9.963C23.3202 10.0899 23.3467 10.3788 23.3256 10.6045C23.0854 13.1813 22.0461 19.4346 21.5173 22.3207C21.2936 23.5419 20.8531 23.9513 20.4266 23.9914C19.4997 24.0785 18.7959 23.366 17.8982 22.7651C16.4934 21.825 15.6999 21.2397 14.3363 20.3223C12.7605 19.262 13.782 18.6793 14.6801 17.7269C14.9151 17.4777 18.9989 13.685 19.0779 13.341C19.0878 13.2979 19.097 13.1375 19.0037 13.0529C18.9103 12.9682 18.7726 12.9971 18.6732 13.0201C18.5323 13.0528 16.2882 14.5673 11.9409 17.5635C11.3039 18.0101 10.7269 18.2277 10.21 18.2163C9.64013 18.2037 8.54393 17.8873 7.729 17.6169C6.72947 17.2851 5.93503 17.1097 6.0042 16.5463C6.04023 16.2529 6.43602 15.9527 7.1916 15.6459Z" fill="white"/>
</g>
<defs>
<clipPath id="clip0_195_1206">
<rect width="32" height="32" fill="white"/>
</clipPath>
</defs>
</svg>
