<?xml version="1.0" encoding="UTF-8" standalone="no"?>
<!-- Created with Inkscape (http://www.inkscape.org/) -->

<svg
   width="33.481613mm"
   height="12.852677mm"
   viewBox="0 0 33.481613 12.852677"
   version="1.1"
   id="svg2087"
   xmlns="http://www.w3.org/2000/svg"
   xmlns:svg="http://www.w3.org/2000/svg">
  <defs
     id="defs2084" />
  <g
     id="layer1"
     transform="translate(-123.17173,-166.76392)">
    <path
       d="m 137.25194,176.03074 c 0,0.18581 7.1e-4,0.3368 0.002,0.45191 0.001,0.12291 0.004,0.22109 0.007,0.2939 0.003,0.0461 0.0105,0.0792 0.0233,0.0992 l 10e-4,0.002 c 0.008,0.0111 0.0184,0.0166 0.0321,0.0166 h 0.9162 c 0.0163,0 0.0307,0.008 0.0393,0.0206 l 0.0254,0.0313 c 0.008,0.0103 0.0118,0.0231 0.0104,0.0354 l -0.28469,2.54028 c -0.002,0.022 -0.0195,0.0388 -0.0404,0.042 l -0.34328,0.0521 c -0.0258,0.004 -0.0499,-0.0136 -0.0543,-0.0391 l -0.44072,-2.06932 h -4.65169 l -0.42962,2.01902 c -0.004,0.02 -0.0205,0.0345 -0.0397,0.0373 l -0.34011,0.0521 c -0.0261,0.004 -0.0505,-0.014 -0.0545,-0.0402 l -0.29471,-2.59419 c -0.001,-0.014 0.003,-0.0273 0.0118,-0.037 l 0.0263,-0.0325 c 0.009,-0.0116 0.0232,-0.0177 0.0371,-0.0177 l 0.7814,-1e-4 c 0.0837,-0.0912 0.16521,-0.19308 0.24412,-0.30551 0.0835,-0.11878 0.1644,-0.24948 0.2424,-0.39186 0.0788,-0.14542 0.1536,-0.29514 0.22419,-0.44874 0.0705,-0.15377 0.13779,-0.31326 0.20129,-0.47819 0.0635,-0.16489 0.1239,-0.33418 0.18052,-0.508 0.0564,-0.17311 0.10869,-0.34939 0.15628,-0.52849 0.0488,-0.1808 0.0936,-0.35888 0.13391,-0.5345 0.0405,-0.17621 0.0771,-0.35059 0.10951,-0.5231 0.0322,-0.17212 0.0607,-0.34 0.0849,-0.5039 0.0242,-0.1644 0.0441,-0.32318 0.0594,-0.4765 0.0158,-0.15081 0.0274,-0.29379 0.0351,-0.4287 0.008,-0.13871 0.0117,-0.27001 0.0117,-0.39341 0,-0.0257 -0.007,-0.0463 -0.0215,-0.0616 -0.0164,-0.0176 -0.0432,-0.031 -0.0804,-0.0401 l -0.791,-0.20013 c -0.0215,-0.005 -0.0359,-0.0245 -0.0362,-0.0456 l -0.0146,-0.24212 c -0.001,-0.0264 0.0186,-0.049 0.0449,-0.0505 h 0.007 c 0.2329,0.006 0.44499,0.0114 0.6356,0.0146 0.1851,0.003 0.35669,0.005 0.51442,0.005 h 2.51259 c 0.43959,0 0.87531,-0.007 1.31039,-0.0193 0.0251,-7e-4 0.0464,0.0183 0.0488,0.043 l 0.0244,0.24409 c 0.002,0.0243 -0.014,0.0461 -0.0372,0.0513 l -0.63571,0.17469 c -0.0328,0.0103 -0.057,0.0244 -0.0723,0.042 -0.0141,0.0162 -0.0216,0.0371 -0.0228,0.0626 l -0.005,0.20101 c -10e-4,0.0715 -0.003,0.14641 -0.004,0.2237 l -0.001,0.2474 v 4.0077 z m -2.707,-4.67469 c -0.0183,0.20941 -0.0386,0.424 -0.0613,0.64421 -0.0241,0.23417 -0.0502,0.46778 -0.0783,0.69998 l -2.1e-4,0.001 c -0.0287,0.2485 -0.0649,0.49558 -0.10851,0.7408 -0.0431,0.2426 -0.0941,0.48479 -0.15279,0.7264 l -3.5e-4,0.002 c -0.0582,0.24299 -0.12461,0.48359 -0.1995,0.72139 -0.0754,0.23961 -0.1596,0.47749 -0.25269,0.7135 -0.0926,0.23692 -0.19883,0.4688 -0.31863,0.69592 -0.10619,0.2014 -0.22321,0.39899 -0.35088,0.59277 h 2.70888 v -5.53808 h -1.18569 z m 6.66919,2.68609 c 0,0.50542 0.0427,0.95101 0.12781,1.33632 0.0849,0.384 0.2117,0.70859 0.3804,0.97328 0.16718,0.26222 0.37331,0.459 0.61821,0.58991 0.2449,0.13099 0.52998,0.1966 0.8551,0.1966 0.32039,0 0.59849,-0.0597 0.834,-0.17889 0.2346,-0.1186 0.4282,-0.297 0.5805,-0.5346 0.15388,-0.23992 0.26938,-0.54952 0.34639,-0.9284 0.0776,-0.38122 0.11631,-0.83291 0.11631,-1.35502 0,-0.48969 -0.0412,-0.92209 -0.12323,-1.29738 -0.0816,-0.37341 -0.20358,-0.69021 -0.36579,-0.9507 l -0.001,-0.002 c -0.16122,-0.25619 -0.36601,-0.4486 -0.61412,-0.57669 -0.24909,-0.12859 -0.54327,-0.19311 -0.88219,-0.19311 -0.32861,0 -0.61161,0.0597 -0.84871,0.179 -0.23608,0.11892 -0.42788,0.29739 -0.57527,0.5353 -0.14923,0.24092 -0.26102,0.54462 -0.33571,0.91091 -0.0751,0.3682 -0.11271,0.8 -0.11271,1.29519 z m 5.55579,-0.0651 c 0,0.5558 -0.0821,1.05791 -0.24627,1.5059 -0.16443,0.44838 -0.4112,0.8424 -0.74052,1.18159 -0.3297,0.33959 -0.72379,0.59451 -1.18209,0.7644 -0.45691,0.16941 -0.97761,0.25421 -1.56171,0.25421 -1.12158,0 -1.98899,-0.31411 -2.60219,-0.94219 -0.3065,-0.31391 -0.53672,-0.6834 -0.69032,-1.1085 -0.15307,-0.4239 -0.2298,-0.90241 -0.2298,-1.4357 0,-0.55573 0.0826,-1.05421 0.24772,-1.49511 0.16549,-0.44161 0.41371,-0.82479 0.74479,-1.14931 0.33129,-0.32551 0.7258,-0.5697 1.18332,-0.7323 0.45618,-0.1621 0.97508,-0.24321 1.55638,-0.24321 1.11962,0 1.98692,0.3041 2.60001,0.91232 0.30688,0.30519 0.53728,0.66538 0.69088,1.08081 0.15311,0.4142 0.2298,0.88318 0.2298,1.40709 z m 7.5105,-3.24372 c 0.2189,0.006 0.4264,0.0113 0.62251,0.0145 0.19022,0.003 0.37701,0.005 0.56092,0.005 0.31898,0 0.68798,-0.007 1.11008,-0.0193 0.0249,-7.1e-4 0.0459,0.0178 0.0487,0.0421 l 0.0294,0.24409 c 0.003,0.0244 -0.0133,0.0468 -0.0368,0.0522 l -0.65112,0.18472 c -0.0262,0.008 -0.0457,0.021 -0.0582,0.0384 -0.0133,0.0184 -0.0205,0.0436 -0.0218,0.0755 v 7.1e-4 c -0.003,0.10491 -0.006,0.22281 -0.007,0.35352 -10e-4,0.1216 -0.002,0.2673 -0.002,0.43659 v 3.79981 c 0,0.37969 0.003,0.69479 0.01,0.9483 0.001,0.0255 0.009,0.0464 0.0228,0.0626 0.0153,0.0175 0.0393,0.0316 0.072,0.0418 l 0.61899,0.1755 c 0.0198,0.006 0.0331,0.0228 0.0347,0.0421 l 0.0196,0.23432 c 0.002,0.0263 -0.0174,0.0495 -0.0437,0.0517 l -0.009,-7e-5 c -0.2269,-0.005 -0.4651,-0.008 -0.71472,-0.0109 -0.23859,-0.002 -0.50229,-0.004 -0.7922,-0.004 -0.28018,0 -0.5273,0.001 -0.74069,0.004 -0.22381,0.002 -0.42651,0.006 -0.6072,0.011 -0.0251,3.5e-4 -0.0461,-0.0184 -0.0486,-0.0429 l -0.0244,-0.23428 c -0.002,-0.024 0.0133,-0.0456 0.036,-0.0512 l 0.54712,-0.16729 c 0.0271,-0.008 0.0473,-0.0208 0.0604,-0.0397 0.0143,-0.0208 0.0222,-0.0497 0.0235,-0.0867 0.005,-0.12531 0.008,-0.26501 0.011,-0.41949 0.002,-0.14771 0.004,-0.31902 0.004,-0.5147 v -3.0529 c 0,-0.0743 10e-4,-0.19513 0.004,-0.3616 l 0.006,-0.32632 -0.0701,0.17441 c -0.056,0.13861 -0.11452,0.2824 -0.17611,0.43219 l -1.899,4.65102 c -0.007,0.0172 -0.0229,0.0281 -0.0402,0.0296 l -0.42961,0.0375 c -0.0227,0.002 -0.043,-0.0122 -0.0497,-0.033 l -1.81138,-4.51379 c -0.0532,-0.12728 -0.10791,-0.26409 -0.16421,-0.40989 l -0.0738,-0.19371 0.004,0.28349 c 0.002,0.1603 0.002,0.27051 0.002,0.33101 v 2.95201 c 0,0.37969 0.003,0.6901 0.01,0.93398 0.001,0.0367 0.009,0.0655 0.0242,0.0861 0.0138,0.0192 0.0352,0.0327 0.0639,0.0403 l 0.5263,0.16831 c 0.0194,0.006 0.0321,0.0236 0.0332,0.0427 l 0.0148,0.23443 c 0.001,0.0263 -0.0186,0.0489 -0.045,0.0505 l -0.006,-7e-5 c -0.1863,-0.005 -0.36029,-0.008 -0.52158,-0.0109 -0.1549,-0.002 -0.30603,-0.004 -0.45272,-0.004 -0.1458,0 -0.303,0.001 -0.47209,0.004 -0.17801,0.002 -0.37772,0.006 -0.5994,0.011 -0.025,3.5e-4 -0.0459,-0.0184 -0.0484,-0.0429 l -0.0244,-0.23428 c -0.002,-0.0245 0.014,-0.0466 0.0375,-0.0516 l 0.63542,-0.17459 c 0.0328,-0.0104 0.0569,-0.0244 0.0722,-0.042 0.0141,-0.0162 0.0217,-0.0371 0.0228,-0.0626 l 10e-5,-7.1e-4 c 0.003,-0.12911 0.006,-0.27209 0.007,-0.4288 0.001,-0.14591 0.002,-0.31891 0.002,-0.51879 v -3.79981 c 0,-0.16929 -7.1e-4,-0.31499 -0.002,-0.43659 -0.002,-0.13103 -0.004,-0.24921 -0.007,-0.3543 -10e-4,-0.0318 -0.008,-0.0569 -0.0217,-0.0753 -0.0127,-0.0175 -0.0322,-0.0304 -0.0586,-0.0386 l -0.63877,-0.18531 c -0.0199,-0.006 -0.0331,-0.0235 -0.0343,-0.043 l -0.0147,-0.24413 c -0.001,-0.0264 0.0186,-0.049 0.0449,-0.0505 h 0.007 c 0.2637,0.006 0.49399,0.0114 0.69049,0.0146 0.19018,0.003 0.35468,0.005 0.49378,0.005 0.36552,0 0.73452,-0.007 1.10991,-0.0193 0.0207,-7e-4 0.0387,0.0119 0.0459,0.0301 l 1.66529,4.2043 c 0.0349,0.0862 0.0687,0.17241 0.1011,0.25781 l 0.0512,0.13738 c 0.5987,-1.5409 1.2422,-3.0685 1.86587,-4.59987 0.008,-0.0201 0.0284,-0.0316 0.0489,-0.0296"
       style="fill:#2a3b7e;fill-opacity:1;fill-rule:nonzero;stroke:none;stroke-width:0.352778"
       id="path155" />
    <path
       d="m 128.73335,168.13833 v 0.23802 c 0,0.0885 0.008,0.16319 0.0244,0.22369 0.0152,0.0571 0.0376,0.10111 0.0668,0.13191 0.0294,0.0313 0.0666,0.0547 0.11141,0.0705 0.0469,0.0165 0.10258,0.0247 0.167,0.0247 0.12199,0 0.24388,-0.0136 0.36569,-0.0414 v -0.64742 l -7e-4,-0.16619 c -7.1e-4,-0.0508 -0.002,-0.0985 -0.003,-0.14281 -2.1e-4,-0.004 -7e-4,-0.007 -0.002,-0.008 -0.002,-0.002 -0.006,-0.004 -0.0116,-0.005 l -0.21431,-0.0625 c -0.0195,-0.006 -0.0327,-0.0229 -0.0342,-0.0421 l -0.008,-0.0944 c -0.002,-0.0264 0.0176,-0.0494 0.0439,-0.0515 l 0.009,7e-5 c 0.0776,0.002 0.16161,0.004 0.25171,0.006 0.0829,0.001 0.18249,0.002 0.29799,0.002 0.1131,0 0.21089,-7e-4 0.2946,-0.002 0.0924,-0.001 0.18041,-0.003 0.26392,-0.006 0.0251,-7.1e-4 0.0464,0.0183 0.0488,0.043 l 0.009,0.0945 c 0.002,0.0233 -0.0126,0.0444 -0.0344,0.0506 l -0.2522,0.0721 c -0.003,0.001 -0.005,0.002 -0.006,0.004 -0.002,0.002 -0.003,0.007 -0.003,0.0131 v 7e-4 c -10e-4,0.0406 -0.002,0.0859 -0.003,0.13568 l -7.1e-4,0.16863 v 1.4702 c 0,0.14919 0.001,0.27079 0.004,0.36559 1e-4,0.003 7e-4,0.005 0.002,0.006 0.002,0.002 0.007,0.005 0.0144,0.007 l 0.2389,0.0677 c 0.0205,0.006 0.0341,0.024 0.0348,0.0442 l 0.006,0.0897 c 0.002,0.0263 -0.0186,0.049 -0.0449,0.0505 h -0.006 c -0.087,-0.002 -0.17833,-0.004 -0.27383,-0.004 -0.0839,-7.1e-4 -0.18598,-0.001 -0.30519,-0.001 -0.1161,0 -0.2165,3.5e-4 -0.3,0.001 -0.096,7e-4 -0.18909,0.002 -0.27901,0.004 -0.025,3.6e-4 -0.0459,-0.0184 -0.0484,-0.0428 l -0.009,-0.0907 c -0.002,-0.0235 0.0127,-0.0447 0.0346,-0.0509 l 0.26698,-0.0749 c 0.006,-0.002 0.01,-0.005 0.0119,-0.007 0.002,-0.003 0.004,-0.008 0.004,-0.0139 v -7.1e-4 c 0.001,-0.045 0.002,-0.0965 0.003,-0.15409 l 7e-4,-0.1971 v -0.5582 c -0.10699,0.0312 -0.21131,0.0554 -0.31309,0.0724 -0.12213,0.0204 -0.24003,0.0306 -0.35362,0.0306 -0.11649,0 -0.21929,-0.0142 -0.30798,-0.0427 -0.0907,-0.0291 -0.1664,-0.0731 -0.22711,-0.13208 -0.0609,-0.0591 -0.10651,-0.13282 -0.1366,-0.22091 -0.0296,-0.0859 -0.0443,-0.18559 -0.0443,-0.2988 v -0.3205 l -7e-4,-0.16771 c -7.1e-4,-0.0498 -0.002,-0.0952 -0.003,-0.13578 -3.1e-4,-0.006 -0.001,-0.0109 -0.003,-0.0132 -0.001,-0.001 -0.003,-0.003 -0.007,-0.004 l -0.24941,-0.0717 c -0.0211,-0.006 -0.0348,-0.0254 -0.0347,-0.0464 l -0.005,-0.0917 c -0.001,-0.0263 0.019,-0.0488 0.0453,-0.0501 l 0.006,7e-5 c 0.0858,0.002 0.17551,0.004 0.26889,0.006 0.0852,10e-4 0.18461,0.002 0.2975,0.002 0.11532,0 0.2118,-7e-4 0.2904,-0.002 0.0863,-0.001 0.16433,-0.003 0.23372,-0.006 0.0251,-0.001 0.0464,0.0178 0.0491,0.0425 l 0.0108,0.0944 c 0.002,0.0241 -0.0131,0.046 -0.0359,0.0516 l -0.19939,0.0619 c -0.006,0.002 -0.01,0.004 -0.0114,0.006 -0.001,0.001 -0.002,0.004 -0.002,0.008 l -1.1e-4,7e-4 c -10e-4,0.0439 -0.002,0.0913 -0.003,0.14182 l -7.1e-4,0.16647 z m 3.57939,1.03371 1.03011,-1.08529 c -2.1e-4,-0.0993 -0.001,-0.18492 -0.004,-0.25742 -2.1e-4,-0.004 -7.1e-4,-0.006 -0.002,-0.007 -0.002,-0.002 -0.006,-0.004 -0.013,-0.006 l -0.21491,-0.0625 c -0.0199,-0.006 -0.0331,-0.0235 -0.0343,-0.0431 l -0.006,-0.0944 c -10e-4,-0.0263 0.0186,-0.049 0.0449,-0.0505 l 0.007,7e-5 c 0.0778,0.002 0.1621,0.004 0.2522,0.006 0.0828,0.001 0.18161,0.002 0.29739,0.002 0.11342,0 0.2116,-7e-4 0.2956,-0.002 0.0925,-0.001 0.18072,-0.003 0.26423,-0.006 0.025,-7.1e-4 0.0461,0.0181 0.0487,0.0425 l 0.0108,0.0944 c 0.002,0.024 -0.013,0.0459 -0.0358,0.0516 l -0.25129,0.0714 c -0.003,0.001 -0.005,0.002 -0.006,0.004 -0.002,0.002 -0.002,0.007 -0.003,0.0131 v 7.1e-4 c -0.001,0.0406 -0.002,0.0859 -0.003,0.13568 l -7e-4,0.16862 v 1.47021 c 0,0.14919 0.001,0.27079 0.004,0.36558 1e-4,0.003 7e-4,0.005 0.002,0.006 0.002,0.002 0.007,0.005 0.0144,0.007 l 0.24081,0.0678 c 0.0207,0.006 0.0344,0.0245 0.0348,0.045 l 0.005,0.0891 c 0.001,0.0263 -0.0188,0.0489 -0.0451,0.0503 h -0.006 c -0.0873,-0.002 -0.17872,-0.004 -0.27411,-0.004 -0.0839,-7e-4 -0.18591,-0.001 -0.30469,-0.001 -0.11561,0 -0.21252,3.5e-4 -0.28949,0.001 -0.0879,0.001 -0.16891,0.002 -0.24282,0.004 -0.025,7e-4 -0.0461,-0.0183 -0.0485,-0.0428 l -0.009,-0.0907 c -0.002,-0.0233 0.0124,-0.0444 0.034,-0.0507 l 0.22148,-0.0654 c 0.005,-0.001 0.009,-0.003 0.0102,-0.005 0.002,-0.003 0.003,-0.008 0.004,-0.0146 v -7e-4 c 10e-4,-0.0488 0.002,-0.1028 0.003,-0.1621 l 7e-4,-0.1995 v -1.08712 l -1.03011,1.08652 7.1e-4,0.1947 c 7e-4,0.0629 10e-4,0.11888 0.003,0.1675 2.1e-4,0.007 0.001,0.0126 0.004,0.0156 0.001,0.002 0.005,0.004 0.01,0.005 l 0.21481,0.0651 c 0.0206,0.006 0.0339,0.025 0.034,0.0455 l 0.006,0.0882 c 0.002,0.0263 -0.0186,0.049 -0.0449,0.0505 h -0.006 c -0.0761,-0.002 -0.15829,-0.004 -0.24638,-0.004 -0.0776,-7.1e-4 -0.17452,-0.001 -0.2897,-0.001 -0.11843,0 -0.2196,3.5e-4 -0.3024,0.001 -0.0951,7e-4 -0.1857,0.002 -0.2715,0.004 -0.025,3.5e-4 -0.0459,-0.0184 -0.0484,-0.0428 l -0.01,-0.0907 c -0.002,-0.0245 0.014,-0.0466 0.0375,-0.0516 l 0.24331,-0.0669 c 0.007,-0.002 0.0121,-0.005 0.0145,-0.008 l 3.5e-4,-7e-4 c 7.1e-4,-0.001 0.001,-0.003 0.001,-0.006 l 1e-4,-0.001 c 0.001,-0.0498 0.002,-0.1046 0.003,-0.16411 l 7e-4,-0.20049 v -1.4702 c 0,-0.1264 -10e-4,-0.22772 -0.004,-0.3048 -2.8e-4,-0.006 -0.001,-0.011 -0.003,-0.0133 -0.001,-0.001 -0.004,-0.003 -0.008,-0.004 l -0.24652,-0.0715 c -0.02,-0.006 -0.0332,-0.0235 -0.0344,-0.0431 l -0.006,-0.0944 c -0.002,-0.0263 0.0186,-0.049 0.0449,-0.0505 l 0.007,7e-5 c 0.0853,0.002 0.17427,0.004 0.26688,0.006 0.0849,10e-4 0.18341,0.002 0.29661,0.002 0.11529,0 0.21421,-7.1e-4 0.2957,-0.002 0.0899,-0.001 0.17268,-0.003 0.24811,-0.006 0.0249,-7.1e-4 0.0461,0.0177 0.0489,0.0421 l 0.0114,0.0945 c 0.003,0.024 -0.0127,0.0461 -0.0355,0.0519 l -0.22183,0.0634 c -0.004,0.001 -0.007,0.003 -0.008,0.004 -0.001,10e-4 -0.002,0.004 -0.002,0.008 l -1.1e-4,0.001 c -0.001,0.0443 -0.002,0.0918 -0.003,0.14227 l -7.1e-4,0.1663 v 1.03301 z m 5.02729,-0.81241 -0.0992,0.016 c -0.0245,0.004 -0.0476,-0.0115 -0.0537,-0.035 l -0.1336,-0.5037 c -0.0381,-0.0108 -0.0778,-0.0192 -0.11892,-0.0252 -0.0499,-0.007 -0.10238,-0.0108 -0.1572,-0.0108 -0.12848,0 -0.24197,0.0239 -0.34039,0.0717 -0.098,0.0475 -0.18179,0.11899 -0.25129,0.21439 -0.0711,0.0972 -0.1246,0.20962 -0.16019,0.33711 -0.036,0.12901 -0.054,0.27411 -0.054,0.43519 0,0.17159 0.0211,0.32529 0.0635,0.46079 0.0419,0.13452 0.1047,0.2515 0.18831,0.35102 0.0828,0.0989 0.18147,0.17311 0.29598,0.22239 0.11539,0.0497 0.24761,0.0746 0.39659,0.0746 0.0841,0 0.17032,-0.009 0.25831,-0.0256 0.0887,-0.017 0.1797,-0.0429 0.27312,-0.0772 0.0248,-0.009 0.0523,0.004 0.0613,0.0284 l 0.0257,0.1112 c 0.005,0.0206 -0.005,0.0412 -0.0222,0.0515 -0.12622,0.0854 -0.2607,0.14951 -0.40312,0.1922 -0.14368,0.0431 -0.29548,0.0646 -0.45501,0.0646 -0.20627,0 -0.39349,-0.0315 -0.56159,-0.0943 -0.1688,-0.063 -0.31771,-0.15751 -0.4464,-0.28328 -0.1287,-0.12612 -0.22529,-0.2722 -0.28981,-0.43833 -0.0641,-0.16538 -0.0963,-0.34999 -0.0963,-0.55357 0,-0.21742 0.0352,-0.41261 0.10548,-0.58551 0.0705,-0.17371 0.17649,-0.3248 0.31782,-0.4529 0.14079,-0.12749 0.303,-0.22302 0.48648,-0.28659 0.18259,-0.0633 0.38579,-0.095 0.6096,-0.095 0.1095,0 0.22091,0.006 0.33379,0.0193 0.11212,0.0127 0.22571,0.032 0.34082,0.0576 0.0133,0.003 0.0241,0.0113 0.0306,0.0221 l 0.0114,0.0189 c 0.006,0.0103 0.008,0.0221 0.006,0.0331 l -0.1203,0.64612 c -0.004,0.0212 -0.0212,0.0365 -0.0416,0.0388 z m 1.94899,1.88372 c -0.12167,0 -0.22779,3.6e-4 -0.31697,0.001 -0.10273,7.1e-4 -0.20341,0.002 -0.3018,0.004 -0.025,3.5e-4 -0.0458,-0.0185 -0.0483,-0.0428 l -0.009,-0.0907 c -0.002,-0.0245 0.0141,-0.0466 0.0376,-0.0516 l 0.29051,-0.0799 c 0.006,-0.002 0.0105,-0.004 0.0125,-0.007 10e-4,-0.002 0.002,-0.005 0.002,-0.009 l 1e-4,-0.001 c 0.001,-0.0459 0.002,-0.0979 0.003,-0.15572 l 7.1e-4,-0.19759 v -1.75609 h -0.44962 l -0.15818,0.45819 c -0.006,0.0172 -0.0207,0.0288 -0.0375,0.0315 l -0.10319,0.0171 c -0.026,0.004 -0.0506,-0.0135 -0.0548,-0.0395 l -0.0484,-0.69331 c -10e-4,-0.0128 0.004,-0.0248 0.011,-0.0339 l 0.0126,-0.0151 c 0.0104,-0.0124 0.0256,-0.0181 0.0406,-0.017 0.15022,0.002 0.29711,0.004 0.44041,0.006 0.13,0.001 0.2709,0.002 0.4246,0.002 h 0.51439 c 0.15371,0 0.2952,-7e-4 0.42612,-0.002 0.1451,-0.001 0.2945,-0.003 0.44768,-0.006 0.0162,-3.2e-4 0.0306,0.008 0.0395,0.0197 l 0.0108,0.0145 c 0.008,0.011 0.011,0.0245 0.009,0.037 l -0.1221,0.6738 c -0.004,0.0204 -0.0199,0.0355 -0.0393,0.0387 l -0.10332,0.017 c -0.0249,0.004 -0.0485,-0.0121 -0.0542,-0.0364 l -0.11098,-0.4723 h -0.44761 v 1.75609 c 0,0.14891 0.001,0.2673 0.004,0.35451 1.8e-4,0.004 7.1e-4,0.007 0.002,0.008 0.002,0.002 0.007,0.005 0.0135,0.007 l 0.2891,0.0811 c 0.0205,0.006 0.0341,0.024 0.0349,0.0442 l 0.006,0.0897 c 0.001,0.0263 -0.0186,0.049 -0.0449,0.0505 h -0.006 c -0.10118,-0.002 -0.20267,-0.003 -0.3042,-0.004 -0.0893,-7e-4 -0.1934,-0.001 -0.3108,-0.001 z m 5.36522,-0.62589 3.6e-4,0.20108 0.003,0.1609 c 2.1e-4,0.004 0.001,0.006 0.003,0.008 0.005,0.005 0.0133,0.008 0.0254,0.0116 l 0.22849,0.0651 c 0.0207,0.006 0.0343,0.0247 0.0347,0.0453 l 0.006,0.0886 c 0.001,0.0263 -0.0185,0.049 -0.0449,0.0505 h -0.006 c -0.0857,-0.002 -0.17551,-0.004 -0.26889,-0.004 -0.0822,-7e-4 -0.182,-0.001 -0.2981,-0.001 -0.11941,0 -0.22112,3.5e-4 -0.30391,0.001 -0.0952,7.1e-4 -0.18549,0.002 -0.27069,0.004 -0.0252,3.5e-4 -0.0463,-0.0187 -0.0485,-0.0434 l -0.009,-0.0905 c -0.002,-0.024 0.0138,-0.0456 0.0366,-0.0509 l 0.24659,-0.0675 c 0.006,-0.002 0.0106,-0.004 0.0125,-0.006 0.001,-0.001 0.002,-0.005 0.002,-0.009 0.004,-0.0511 0.002,-0.1101 0.003,-0.1621 0.004,-0.61288 0.001,-1.2265 0,-1.83949 l -0.003,-0.13741 c -1.8e-4,-0.006 -0.001,-0.0108 -0.003,-0.0131 -0.001,-0.001 -0.003,-0.002 -0.006,-0.004 l -0.24941,-0.0717 c -0.0211,-0.006 -0.0349,-0.0253 -0.0347,-0.0463 l -0.005,-0.0918 c -0.001,-0.0263 0.0189,-0.0488 0.0452,-0.0501 l 0.006,7e-5 c 0.0857,0.002 0.1754,0.004 0.26882,0.006 0.0853,10e-4 0.18468,0.002 0.2976,0.002 0.11617,0 0.21668,-7e-4 0.30279,-0.002 0.0949,-0.001 0.18538,-0.003 0.27139,-0.006 0.0252,-7.1e-4 0.0464,0.0183 0.0488,0.043 l 0.009,0.0945 c 0.002,0.0243 -0.0139,0.0461 -0.0372,0.0513 l -0.24648,0.0677 c -0.006,0.001 -0.009,0.003 -0.0112,0.005 l -3.6e-4,3.6e-4 c -7e-4,0.001 -0.001,0.004 -0.002,0.007 -0.004,0.0413 -0.002,0.0974 -0.003,0.1402 -0.004,0.54719 -3.6e-4,1.09492 -3.6e-4,1.64221 z m -3.08412,-2.05183 c 0.0853,0.002 0.17431,0.004 0.26702,0.006 0.0848,0.001 0.1833,0.002 0.29651,0.002 0.11609,0 0.219,-7e-4 0.3079,-0.002 0.0984,-0.001 0.19367,-0.003 0.28579,-0.006 0.0252,-7.1e-4 0.0464,0.0183 0.0488,0.043 l 0.01,0.0945 c 0.002,0.0243 -0.0139,0.0461 -0.0372,0.0513 l -0.26321,0.0724 c -0.007,0.002 -0.0114,0.005 -0.0135,0.007 -7.1e-4,0.001 -0.001,0.003 -0.001,0.005 -0.002,0.0466 -0.002,0.0952 -0.003,0.14192 -0.002,0.22568 -3.5e-4,0.45149 -3.5e-4,0.6772 0.0428,-0.004 0.0849,-0.006 0.12608,-0.008 0.0595,-0.003 0.11642,-0.004 0.1705,-0.004 0.16552,0 0.30963,0.0146 0.43233,0.0439 0.12527,0.0299 0.22888,0.0753 0.3108,0.13627 0.0832,0.062 0.14559,0.1391 0.18707,0.23121 0.041,0.091 0.0615,0.19611 0.0615,0.31521 0,0.14189 -0.0266,0.26808 -0.0799,0.37818 -0.0534,0.11063 -0.13342,0.20433 -0.23981,0.28081 -0.10499,0.0755 -0.22949,0.13212 -0.37349,0.16951 -0.14252,0.0371 -0.30399,0.0556 -0.48429,0.0556 -0.0314,0 -0.0692,-3.5e-4 -0.11402,-0.002 -0.0395,-0.001 -0.0797,-0.003 -0.12069,-0.005 -0.0439,-0.002 -0.0883,-0.004 -0.13289,-0.005 -0.0414,-0.001 -0.089,-0.002 -0.14301,-0.002 -0.0918,0 -0.17371,3.5e-4 -0.24451,0.001 -0.0812,0.001 -0.1632,0.002 -0.24568,0.004 -0.0253,3.5e-4 -0.0465,-0.0189 -0.0485,-0.0438 l -0.008,-0.0907 c -0.002,-0.0244 0.0148,-0.0462 0.0383,-0.0508 l 0.2407,-0.0667 c 0.007,-0.002 0.0122,-0.005 0.0146,-0.008 l 3.5e-4,-7.1e-4 c 7e-4,-0.001 10e-4,-0.003 10e-4,-0.006 0.003,-0.0532 0.002,-0.11021 0.003,-0.16391 0.004,-0.5571 7.1e-4,-1.1147 3.5e-4,-1.67188 l -3.5e-4,-0.1676 -0.003,-0.13741 c -1.8e-4,-0.006 -10e-4,-0.0108 -0.003,-0.0131 -0.001,-0.001 -0.004,-0.003 -0.008,-0.004 l -0.2467,-0.0715 c -0.02,-0.006 -0.0332,-0.0235 -0.0344,-0.0431 l -0.006,-0.0944 c -0.001,-0.0263 0.0186,-0.049 0.0449,-0.0505 l 0.007,7e-5 z m 0.89662,2.41533 c 0.0199,0.004 0.0397,0.006 0.0592,0.008 0.0316,0.004 0.0632,0.005 0.0951,0.005 0.0715,0 0.1342,-0.0112 0.18789,-0.0338 l 0.002,-7e-4 c 0.0516,-0.0219 0.0953,-0.0544 0.13098,-0.0978 0.037,-0.0448 0.065,-0.101 0.0838,-0.16849 0.0194,-0.0697 0.0292,-0.1519 0.0292,-0.24631 0,-0.0945 -0.009,-0.17589 -0.0277,-0.2443 -0.0177,-0.0656 -0.0441,-0.1192 -0.0789,-0.16072 l -0.002,-0.003 c -0.0333,-0.0391 -0.0765,-0.0688 -0.12912,-0.0887 -0.0561,-0.0212 -0.12337,-0.0319 -0.20179,-0.0319 -0.0428,0 -0.0924,0.003 -0.14859,0.008 v 1.0535 z m 4.38478,-0.80892 1.03011,-1.08529 c -2.1e-4,-0.0994 -0.001,-0.1851 -0.004,-0.2576 -2.1e-4,-0.004 -7e-4,-0.006 -0.002,-0.007 -0.002,-0.002 -0.006,-0.004 -0.0129,-0.006 l -0.21488,-0.0625 c -0.0199,-0.006 -0.0332,-0.0235 -0.0343,-0.0431 l -0.006,-0.0944 c -0.001,-0.0263 0.0186,-0.049 0.0449,-0.0505 l 0.007,7e-5 c 0.0778,0.002 0.16207,0.004 0.2522,0.006 0.0828,0.001 0.18168,0.002 0.29739,0.002 0.11349,0 0.2117,-7e-4 0.29559,-0.002 0.0926,-0.001 0.1807,-0.003 0.2642,-0.006 0.0249,-7.1e-4 0.0461,0.0181 0.0487,0.0425 l 0.0108,0.0944 c 0.002,0.024 -0.013,0.0459 -0.0358,0.0516 l -0.2504,0.0712 c -0.004,0.001 -0.006,0.002 -0.007,0.004 -0.001,0.002 -0.003,0.007 -0.003,0.0133 l -1.1e-4,10e-4 c -10e-4,0.0405 -0.002,0.0856 -0.003,0.13519 l -7e-4,0.16862 v 1.47021 c 0,0.14919 0.001,0.27079 0.004,0.36558 1e-4,0.003 7e-4,0.005 0.002,0.006 0.002,0.002 0.007,0.005 0.0143,0.007 l 0.24077,0.0678 c 0.0208,0.006 0.0345,0.0245 0.0349,0.045 l 0.005,0.0891 c 0.001,0.0263 -0.0188,0.0489 -0.0451,0.0503 h -0.006 c -0.0873,-0.002 -0.17868,-0.004 -0.27411,-0.004 -0.0839,-7e-4 -0.18588,-0.001 -0.3048,-0.001 -0.1155,0 -0.21237,3.5e-4 -0.28938,0.001 -0.0879,0.001 -0.16891,0.002 -0.24282,0.004 -0.025,7e-4 -0.0461,-0.0183 -0.0486,-0.0428 l -0.009,-0.0907 c -0.002,-0.0233 0.0124,-0.0444 0.034,-0.0507 l 0.22151,-0.0654 c 0.005,-0.001 0.009,-0.003 0.0102,-0.005 0.002,-0.003 0.003,-0.008 0.004,-0.0146 v -7e-4 c 0.001,-0.0488 0.002,-0.1028 0.003,-0.1621 l 7e-4,-0.1995 v -1.08712 l -1.03011,1.08652 7.1e-4,0.1947 c 7e-4,0.0629 0.001,0.11888 0.003,0.1675 3.1e-4,0.007 0.001,0.0126 0.004,0.0156 l 2.1e-4,2.8e-4 c 0.002,0.002 0.005,0.003 0.009,0.005 l 0.21487,0.0651 c 0.0205,0.006 0.0339,0.025 0.034,0.0455 l 0.005,0.0882 c 0.001,0.0263 -0.0186,0.049 -0.0449,0.0505 h -0.006 c -0.0762,-0.002 -0.15833,-0.004 -0.24642,-0.004 -0.0776,-7.1e-4 -0.17448,-0.001 -0.2897,-0.001 -0.11839,0 -0.2196,3.5e-4 -0.3024,0.001 -0.0951,7e-4 -0.1857,0.002 -0.2716,0.004 -0.0249,3.5e-4 -0.0459,-0.0184 -0.0483,-0.0428 l -0.009,-0.0907 c -0.002,-0.0245 0.014,-0.0466 0.0375,-0.0516 l 0.24331,-0.0669 c 0.007,-0.002 0.0121,-0.005 0.0145,-0.008 l 3.5e-4,-7e-4 c 7.1e-4,-0.001 0.001,-0.003 0.001,-0.006 v -0.001 c 0.001,-0.0498 0.002,-0.1046 0.003,-0.16411 l 7.1e-4,-0.20049 v -1.4702 c 0,-0.1265 -0.001,-0.22789 -0.004,-0.30501 -3.2e-4,-0.006 -0.001,-0.0108 -0.003,-0.0131 -0.001,-0.001 -0.004,-0.003 -0.008,-0.004 l -0.2468,-0.0715 c -0.0199,-0.006 -0.0331,-0.0235 -0.0343,-0.0431 l -0.006,-0.0944 c -0.002,-0.0263 0.0185,-0.049 0.0449,-0.0505 l 0.007,7e-5 c 0.0852,0.002 0.17431,0.004 0.26691,0.006 0.0849,0.001 0.18338,0.002 0.29658,0.002 0.11533,0 0.21421,-7e-4 0.2957,-0.002 0.0899,-0.001 0.17272,-0.003 0.24811,-0.006 0.0249,-7.1e-4 0.0461,0.0177 0.0489,0.0421 l 0.0114,0.0945 c 0.003,0.024 -0.0127,0.0461 -0.0355,0.0519 l -0.2213,0.0633 c -0.005,10e-4 -0.008,0.003 -0.009,0.004 -0.001,0.001 -0.002,0.004 -0.002,0.008 l -7e-5,10e-4 c -0.001,0.0443 -0.002,0.0918 -0.003,0.14227 l -7.1e-4,0.1663 v 1.03301 z m 0.74443,-2.35811 c 0.0317,-0.0162 0.0641,-0.0284 0.0969,-0.0365 0.0349,-0.009 0.0702,-0.013 0.10573,-0.013 0.044,0 0.0831,0.006 0.11677,0.018 0.0359,0.0127 0.0659,0.0323 0.0895,0.0587 0.023,0.0247 0.0402,0.0533 0.0515,0.0852 l 0.001,0.003 c 0.0105,0.0306 0.0157,0.0637 0.0157,0.0989 0,0.0715 -0.019,0.13491 -0.0569,0.19012 -0.0368,0.0535 -0.0912,0.0981 -0.16291,0.13338 -0.068,0.0339 -0.1433,0.0594 -0.22571,0.0763 -0.0817,0.0168 -0.16969,0.0252 -0.26409,0.0252 -0.0945,0 -0.18239,-0.008 -0.2636,-0.0252 -0.0818,-0.0169 -0.15631,-0.0424 -0.2233,-0.0764 l -0.003,-0.002 c -0.0692,-0.0353 -0.12181,-0.0795 -0.1573,-0.13211 -0.0371,-0.055 -0.0557,-0.11829 -0.0557,-0.18969 0,-0.0365 0.006,-0.0706 0.0166,-0.10181 0.0112,-0.0316 0.0282,-0.0602 0.0508,-0.0851 0.0239,-0.0266 0.054,-0.0462 0.0903,-0.059 0.0339,-0.012 0.0729,-0.018 0.11691,-0.018 0.0362,0 0.0718,0.004 0.10671,0.013 0.0343,0.008 0.0678,0.0214 0.1003,0.0387 0.016,0.009 0.0252,0.0251 0.0252,0.0421 l 2.1e-4,0.27961 c 0,0.0123 0.0109,0.0229 0.0327,0.0317 0.0359,0.0144 0.0926,0.0218 0.17001,0.0218 0.075,0 0.12978,-0.007 0.16439,-0.0217 0.0209,-0.009 0.0314,-0.0193 0.0314,-0.0318 v -0.27961 c 0,-0.02 0.0123,-0.0372 0.0298,-0.0443"
       style="fill:#2a3b7e;fill-opacity:1;fill-rule:nonzero;stroke:none;stroke-width:0.352778"
       id="path157" />
    <path
       d="m 125.88364,167.74805 v 5.37281 l 1.99179,1.95449 1.9407,-1.90429 -2.71121,-2.71121 h 5.4742 v 0 0 2.71181 1.4496 l -4.70369,4.61549 -4.7037,-4.61549 v -4.16141 0 -10e-5 z"
       style="fill:#2d4191;fill-opacity:1;fill-rule:evenodd;stroke:none;stroke-width:0.352778"
       id="path159" />
    <path
       d="m 125.88364,167.74805 v 5.93831 h -2.71191 v -3.22661 z"
       style="fill:#2d4191;fill-opacity:1;fill-rule:evenodd;stroke:none;stroke-width:0.352778"
       id="path161" />
    <path
       d="m 127.10492,170.45985 h 5.4742 v 2.71181 h -2.76239 z"
       style="fill:#21a73f;fill-opacity:1;fill-rule:evenodd;stroke:none;stroke-width:0.352778"
       id="path163" />
    <path
       d="m 132.57912,170.45985 -4.70369,4.6155 v 4.1614 l 4.70369,-4.61549 z"
       style="fill:#2a3b7e;fill-opacity:1;fill-rule:evenodd;stroke:none;stroke-width:0.352778"
       id="path165" />
    <path
       d="m 123.17173,170.45985 4.7037,4.6155 v 4.1614 l -4.7037,-4.61549 z"
       style="fill:#21a73f;fill-opacity:1;fill-rule:evenodd;stroke:none;stroke-width:0.352778"
       id="path167" />
  </g>
</svg>
