<svg width="27" height="27" viewBox="0 0 27 27" fill="none" xmlns="http://www.w3.org/2000/svg">
<g clip-path="url(#clip0_287_630)">
<path d="M14.2745 3.0482L16.7245 8.88695C16.7838 9.02865 16.8807 9.15147 17.0047 9.24217C17.1286 9.33287 17.275 9.38801 17.428 9.40164L23.6992 9.94375C23.8656 9.95712 24.0243 10.0196 24.1552 10.1231C24.2861 10.2267 24.3833 10.3668 24.4346 10.5257C24.4858 10.6845 24.4888 10.8551 24.4432 11.0156C24.3975 11.1762 24.3052 11.3196 24.178 11.4277L19.4203 15.5779C19.3047 15.6795 19.2187 15.8105 19.1715 15.957C19.1244 16.1035 19.1178 16.2601 19.1524 16.41L20.5784 22.5842C20.6161 22.7454 20.6055 22.9142 20.5479 23.0695C20.4903 23.2248 20.3883 23.3597 20.2546 23.4574C20.1209 23.5551 19.9614 23.6113 19.796 23.619C19.6306 23.6267 19.4666 23.5856 19.3244 23.5007L13.9349 20.2312C13.8039 20.1515 13.6536 20.1094 13.5004 20.1094C13.3471 20.1094 13.1968 20.1515 13.0658 20.2312L7.67638 23.5007C7.53418 23.5856 7.37015 23.6267 7.20473 23.619C7.0393 23.6113 6.87981 23.5551 6.74611 23.4574C6.61241 23.3597 6.51042 23.2248 6.45285 23.0695C6.39528 22.9142 6.38468 22.7454 6.42236 22.5842L7.8483 16.41C7.88296 16.2601 7.87635 16.1035 7.82919 15.957C7.78202 15.8105 7.69605 15.6795 7.58041 15.5779L2.82271 11.4277C2.69552 11.3196 2.60325 11.1762 2.55758 11.0156C2.51191 10.8551 2.5149 10.6845 2.56616 10.5257C2.61742 10.3668 2.71465 10.2267 2.84556 10.1231C2.97646 10.0196 3.13515 9.95712 3.30154 9.94375L9.57271 9.40164C9.72571 9.38801 9.87209 9.33287 9.99606 9.24217C10.12 9.15147 10.2169 9.02865 10.2762 8.88695L12.7262 3.0482C12.7917 2.89724 12.8998 2.76871 13.0374 2.67843C13.1749 2.58814 13.3358 2.54004 13.5004 2.54004C13.6649 2.54004 13.8258 2.58814 13.9634 2.67843C14.1009 2.76871 14.2091 2.89724 14.2745 3.0482Z" stroke="#66A300" stroke-width="2" stroke-linecap="round" stroke-linejoin="round"/>
</g>
<defs>
<clipPath id="clip0_287_630">
<rect width="27" height="27" fill="white"/>
</clipPath>
</defs>
</svg>
