<svg width="21" height="21" viewBox="0 0 21 21" fill="none" xmlns="http://www.w3.org/2000/svg">
<g clip-path="url(#clip0_82_25)">
<path d="M21 10.5C21 4.70101 16.299 0 10.5 0C4.70101 0 0 4.70101 0 10.5C0 16.299 4.70101 21 10.5 21C16.299 21 21 16.299 21 10.5Z" fill="white"/>
<path d="M21 10.5C21 4.70101 16.299 0 10.5 0C4.70101 0 0 4.70101 0 10.5C0 16.299 4.70101 21 10.5 21C16.299 21 21 16.299 21 10.5Z" fill="#000B7F"/>
<path d="M4.71949 10.2685C7.77293 8.91024 9.80901 8.01476 10.8278 7.58207C13.7366 6.34679 14.341 6.1322 14.735 6.12507C14.8216 6.12358 15.0153 6.1455 15.1409 6.24945C15.2468 6.33726 15.276 6.45586 15.2899 6.53908C15.3039 6.62233 15.3212 6.81194 15.3074 6.96008C15.1498 8.65111 14.4678 12.7548 14.1207 14.6488C13.9739 15.4502 13.6848 15.7189 13.405 15.7452C12.7967 15.8024 12.3348 15.3348 11.7457 14.9405C10.8238 14.3235 10.303 13.9394 9.40817 13.3373C8.37405 12.6415 9.04444 12.2591 9.63379 11.6341C9.78801 11.4706 12.468 8.98164 12.5199 8.75589C12.5264 8.72763 12.5324 8.62236 12.4712 8.5668C12.4099 8.51124 12.3195 8.53023 12.2543 8.54532C12.1618 8.56676 10.6891 9.56063 7.83619 11.5269C7.41816 11.82 7.03955 11.9628 6.70031 11.9553C6.32634 11.9471 5.60696 11.7394 5.07216 11.5619C4.41621 11.3442 3.89486 11.2291 3.94026 10.8594C3.9639 10.6668 4.22364 10.4698 4.71949 10.2685Z" fill="white"/>
</g>
<defs>
<clipPath id="clip0_82_25">
<rect width="21" height="21" fill="white"/>
</clipPath>
</defs>
</svg>
