<svg width="21" height="21" viewBox="0 0 21 21" fill="none" xmlns="http://www.w3.org/2000/svg">
<g clip-path="url(#clip0_82_29)">
<path d="M0.480652 20.4017L1.89619 15.2559C1.02289 13.7498 0.563645 12.0412 0.564196 10.2913C0.566486 4.816 5.04232 0.36145 10.5417 0.36145C13.2108 0.36265 15.716 1.39683 17.5995 3.27383C19.4834 5.15081 20.5203 7.64573 20.5192 10.2991C20.5169 15.7745 16.0408 20.2295 10.5421 20.2295C10.5417 20.2295 10.5424 20.2295 10.5421 20.2295H10.5377C8.86789 20.229 7.22716 19.8116 5.76994 19.0209L0.480652 20.4017Z" fill="#000B7F"/>
<path fill-rule="evenodd" clip-rule="evenodd" d="M7.96029 5.98787C7.76686 5.5597 7.5632 5.55113 7.37917 5.54364C7.22865 5.53721 7.05633 5.5376 6.88428 5.5376C6.7121 5.5376 6.4323 5.60202 6.19568 5.8593C5.95893 6.11658 5.29172 6.73853 5.29172 8.00347C5.29172 9.26854 6.21721 10.4909 6.34621 10.6626C6.47534 10.834 8.13275 13.5128 10.7576 14.5434C12.9391 15.3998 13.383 15.2295 13.8565 15.1866C14.33 15.1438 15.3844 14.5648 15.5996 13.9644C15.8148 13.3641 15.8148 12.8496 15.7503 12.7421C15.6857 12.6349 15.5135 12.5706 15.2552 12.4421C14.997 12.3135 13.7274 11.6914 13.4906 11.6057C13.2539 11.52 13.0817 11.4771 12.9095 11.7345C12.7373 11.9917 12.2427 12.5706 12.092 12.7421C11.9414 12.9139 11.7907 12.9353 11.5324 12.8067C11.2742 12.6778 10.4424 12.4066 9.45574 11.5307C8.68805 10.8492 8.16974 10.0076 8.01908 9.75025C7.86842 9.49311 8.00293 9.35383 8.13248 9.22565C8.24843 9.11047 8.39075 8.92552 8.51989 8.77538C8.64875 8.62525 8.6918 8.51811 8.77789 8.34668C8.86398 8.17498 8.82094 8.02486 8.75637 7.89629C8.6918 7.76772 8.18992 6.49625 7.96029 5.98787Z" fill="white"/>
</g>
<defs>
<clipPath id="clip0_82_29">
<rect width="21" height="21" fill="white"/>
</clipPath>
</defs>
</svg>
